<?xml version="1.0" standalone="no"?>
<!DOCTYPE svg PUBLIC "-//W3C//DTD SVG 20010904//EN"
 "http://www.w3.org/TR/2001/REC-SVG-20010904/DTD/svg10.dtd">
<svg version="1.0" xmlns="http://www.w3.org/2000/svg"
 width="1084.000000pt" height="1084.000000pt" viewBox="0 0 1084.000000 1084.000000"
 preserveAspectRatio="xMidYMid meet">
<metadata>
Created by potrace 1.11, written by Peter Selinger 2001-2013
</metadata>
<g transform="translate(0.000000,1084.000000) scale(0.100000,-0.100000)"
fill="#000000" stroke="none">
<path d="M18 10813 c-3 -4 -4 -1221 -4 -2703 l1 -2695 125 1 c122 1 311 10
380 18 19 3 64 8 100 11 36 4 72 8 80 10 8 1 42 6 75 10 70 9 73 9 185 29 115
20 141 25 170 32 14 3 36 8 50 11 86 16 390 100 530 146 157 52 359 129 463
176 26 11 68 31 95 42 378 169 843 459 1172 733 186 155 247 211 415 380 749
754 1246 1681 1458 2721 20 94 38 190 41 215 3 25 8 56 10 70 8 44 15 94 21
155 4 33 8 70 10 82 2 12 7 68 10 125 4 57 9 105 11 107 2 2 3 -1699 3 -3780
-1 -2081 -5 -3755 -9 -3719 -65 547 -251 996 -588 1421 -90 114 -308 330 -423
419 -99 77 -263 190 -275 190 -4 0 -15 6 -23 14 -19 17 -241 131 -321 165
-221 94 -513 171 -735 196 -33 3 -80 8 -105 11 -62 8 -383 7 -450 0 -30 -3
-77 -8 -105 -12 -77 -8 -261 -43 -335 -63 -372 -100 -688 -253 -970 -470 -127
-98 -134 -104 -285 -256 -160 -160 -299 -338 -410 -526 -37 -62 -129 -249
-163 -329 -106 -253 -179 -555 -199 -825 -12 -172 -6 -444 12 -555 3 -14 7
-45 10 -70 10 -84 52 -264 89 -385 102 -336 303 -702 526 -960 58 -67 251
-258 320 -317 140 -119 474 -338 515 -338 8 0 16 -4 19 -9 8 -13 199 -95 317
-136 91 -31 252 -77 320 -90 236 -46 352 -58 564 -58 121 0 284 8 330 17 11 2
45 7 75 11 45 5 140 25 250 50 156 35 361 110 527 191 290 142 512 301 738
528 358 360 599 791 715 1281 15 66 31 136 34 155 6 41 24 171 29 215 2 17 5
-528 6 -1210 l1 -1241 83 2 c109 2 333 13 377 18 19 3 67 7 105 11 73 6 146
15 180 21 11 3 40 7 65 10 25 3 52 7 60 9 8 2 35 7 60 10 40 6 255 49 303 61
43 11 63 15 83 19 43 10 304 85 394 115 111 37 381 139 395 150 6 4 21 11 34
15 73 22 480 226 553 277 14 10 29 18 32 18 27 0 478 305 616 417 214 173 287
239 495 448 216 218 218 220 346 375 210 256 377 502 558 820 44 78 186 368
228 464 180 420 318 898 378 1311 4 22 10 67 15 100 5 33 12 87 16 120 3 33 8
74 10 90 26 215 25 879 -1 1055 -2 14 -6 52 -10 85 -9 90 -14 131 -31 230 -21
127 -22 133 -39 221 -9 43 -18 90 -21 104 -32 169 -146 550 -229 765 -118 304
-283 640 -438 890 -109 176 -320 474 -414 585 -287 341 -524 575 -847 837
-294 239 -733 506 -1121 683 -199 91 -579 231 -748 275 -29 7 -86 23 -127 34
-41 11 -86 22 -100 24 -14 3 -65 14 -115 26 -109 25 -359 69 -435 76 -30 3
-64 7 -75 10 -11 2 -60 7 -110 10 -49 4 -99 10 -110 13 -30 9 -5813 14 -5817
5z"/>
</g>
</svg>
