<svg id="Logo" xmlns="http://www.w3.org/2000/svg" width="2338.81" height="1562.25" viewBox="0 0 2338.81 1562.25"><defs><style>.cls-1{fill:#1b4f66;}.cls-2{fill:#90d4dd;}.cls-3{fill:#fd7360;}</style></defs><circle class="cls-1" cx="975.38" cy="978.35" r="194.6"/><circle class="cls-2" cx="197.22" cy="978.35" r="194.6"/><circle class="cls-3" cx="975.38" cy="196.23" r="194.6"/><circle class="cls-1" cx="1364.59" cy="1367.65" r="194.6"/><circle class="cls-3" cx="1753.62" cy="978.35" r="194.6"/><path class="cls-3" d="M1170,1173c215,0,389.21-174.25,389.21-389.2S1384.94,394.54,1170,394.54Z"/><path class="cls-3" d="M1949.6,780c215,0,389.21-174.25,389.21-389.21S2164.56,1.62,1949.6,1.62Z"/><path class="cls-2" d="M1169.76,1173.05c0,215-174.26,389.2-389.21,389.2S391.34,1388,391.34,1173.05Z"/><path class="cls-2" d="M780.78,394.54V783.75c215,0,389.21-174.26,389.21-389.21Z"/><path class="cls-2" d="M1559,391.69V780.9c215,0,389.21-174.25,389.21-389.21Z"/><path class="cls-3" d="M391.34,783.75V1173c215,0,389.21-174.25,389.21-389.2Z"/><path class="cls-1" d="M391.83,394.54h-.49C176.61,394.8,2.62,569,2.62,783.75H780.55C780.55,569,606.56,394.8,391.83,394.54Z"/><path class="cls-2" d="M1559.2,1.62V390.83c-215,0-389.21-174.25-389.21-389.21Z"/><path class="cls-1" d="M1559,390.83V1.62c215,0,389.21,174.25,389.21,389.21Z"/><path class="cls-3" d="M7.62,1562.25v-389.2c215,0,389.21,174.25,389.21,389.2Z"/><path class="cls-2" d="M1948.22,1173.05H1559c0,215,174.26,389.2,389.21,389.2Z"/><path class="cls-1" d="M2337.81,1173.14v-.09h0c-.1-214.88-174.31-389-389.21-389v778.23c214.9,0,389.11-174.15,389.21-389h0Z"/><path class="cls-1" d="M396.65,1.62V390.83c215,0,389.21-174.25,389.21-389.21Z"/><path class="cls-2" d="M396.83,390.83V1.62c-215,0-389.21,174.25-389.21,389.21Z"/></svg>