<svg id="Logo" xmlns="http://www.w3.org/2000/svg" width="869.2" height="412.79" viewBox="0 0 869.2 412.79"><defs><style>.cls-1{fill:#1b4f66;}.cls-2{fill:#fd7360;}.cls-3{fill:#90d4dd;}</style></defs><g id="Logo_2" data-name="Logo 2"><circle class="cls-1" cx="102.56" cy="308.04" r="102.5"/><path class="cls-2" d="M205.06,410.54c113.22,0,205-91.78,205-205s-91.78-205-205-205Z"/><path class="cls-3" d="M.06.54v205c113.22,0,205-91.78,205-205Z"/><path class="cls-1" d="M513.52,4.16q12.3,0,18.45,6.6t6.15,19.35v53.1q0,12.75-6.15,19.35t-18.45,6.6h-26.1V4.16Zm-9.6,90h9.3a8,8,0,0,0,6.23-2.4q2.17-2.4,2.17-7.8V29.36q0-5.4-2.17-7.8a8,8,0,0,0-6.23-2.4h-9.3Z"/><path class="cls-1" d="M565.12,4.16v105h-16.5V4.16Z"/><path class="cls-1" d="M625,50.66V84q0,12.75-6.3,19.58t-18.3,6.82q-12,0-18.3-6.82T575.77,84V29.36q0-12.75,6.3-19.57T600.37,3q12,0,18.3,6.83T625,29.36v10.2h-15.6V28.31q0-10.35-8.55-10.35t-8.55,10.35V85q0,10.2,8.55,10.2T609.37,85V65.66h-7.5v-15Z"/><path class="cls-1" d="M652.12,4.16v105h-16.5V4.16Z"/><path class="cls-1" d="M710.32,4.16v15H693.07v90h-16.5v-90H659.32v-15Z"/><path class="cls-1" d="M748.57,109.16l-2.86-19H725.46l-2.84,19H707.46l16.81-105h24.15l16.79,105Zm-5.11-33.3-7.94-53.1-7.95,53.1Z"/><path class="cls-1" d="M789.37,4.16v90h27.14v15H772.87V4.16Z"/><path class="cls-2" d="M524.17,261.16l-2.85-19.05H501.07l-2.85,19.05H483.07l16.8-105H524l16.8,105Zm-5.1-33.3-8-53.1-7.95,53.1Z"/><path class="cls-2" d="M581.77,256.36a72.21,72.21,0,0,1-.3-8.1v-16.5q0-7.2-2.55-10.27t-8.25-3.08H565v42.75h-16.5v-105h24.9q12.75,0,18.6,5.93t5.85,18.22v8.25q0,16.2-10.8,21.3a15.22,15.22,0,0,1,8.4,8q2.55,5.63,2.55,14.32v16.2a70.65,70.65,0,0,0,.3,7.28,18.23,18.23,0,0,0,1.5,5.47H583A24,24,0,0,1,581.77,256.36Zm-16.8-53h6.45q5,0,7.43-2.55t2.47-8.55V182q0-5.7-2-8.25t-6.38-2.55H565Z"/><path class="cls-2" d="M655,156.16v15H637.72v90h-16.5v-90H604v-15Z"/><path class="cls-1" d="M533.62,308.16h23v105H541v-75.3l-11.4,75.3H514l-12.3-74.25v74.25h-14.4v-105h23l12.15,74.55Z"/><path class="cls-1" d="M584.32,389.16q0,10.2,8.55,10.2t8.55-10.2v-81H617v79.95q0,12.75-6.3,19.58t-18.3,6.82q-12,0-18.3-6.82t-6.3-19.58V308.16h16.5Z"/><path class="cls-1" d="M632.32,313.79q6.15-6.82,18.15-6.83t18.15,6.83q6.15,6.82,6.15,19.57v3.3h-15.6v-4.35q0-5.4-2.1-7.87a8.87,8.87,0,0,0-12.3,0q-2.1,2.47-2.1,7.87a19.39,19.39,0,0,0,3.52,11.55,71.91,71.91,0,0,0,10.58,11.25,127.65,127.65,0,0,1,9.45,9.53,38.3,38.3,0,0,1,6.15,10A33.11,33.11,0,0,1,674.92,388q0,12.75-6.3,19.58t-18.3,6.82q-12,0-18.3-6.82T625.72,388v-6.45h15.6V389q0,10.2,8.55,10.2t8.55-10.2a19.4,19.4,0,0,0-3.53-11.55,71.78,71.78,0,0,0-10.57-11.25,127.76,127.76,0,0,1-9.45-9.52,38.36,38.36,0,0,1-6.15-10,33.11,33.11,0,0,1-2.55-13.35Q626.17,320.61,632.32,313.79Z"/><path class="cls-1" d="M723.52,352.41v15H700.87v30.75h28.5v15h-45v-105h45v15h-28.5v29.25Z"/><path class="cls-1" d="M755.32,389.16q0,10.2,8.55,10.2t8.55-10.2v-81H788v79.95q0,12.75-6.3,19.58t-18.3,6.82q-12,0-18.3-6.82t-6.3-19.58V308.16h16.5Z"/><path class="cls-1" d="M845.47,308.16h22.95v105h-15.6v-75.3l-11.4,75.3h-15.6l-12.3-74.25v74.25h-14.4v-105h23l12.15,74.55Z"/></g></svg>