<?xml version="1.0" encoding="utf-8"?>
<!-- Generator: Adobe Illustrator 24.1.1, SVG Export Plug-In . SVG Version: 6.00 Build 0)  -->
<svg version="1.1" id="Layer_1" xmlns="http://www.w3.org/2000/svg" xmlns:xlink="http://www.w3.org/1999/xlink" x="0px" y="0px"
	 viewBox="0 0 20 20" style="enable-background:new 0 0 20 20;" xml:space="preserve">
<style type="text/css">
	.st0{display:none;fill:#1B4F66;}
	.st1{fill:#1B4F66;}
</style>
<path class="st0" d="M13.6,6H6.4C6,6,5.9,6.4,6.1,6.6L9,9.5v3.2c0,0.1,0.1,0.2,0.2,0.3l1.3,0.9c0.2,0.2,0.6,0,0.6-0.3V9.5L14,6.6
	C14.1,6.4,14,6,13.6,6z"/>
<path class="st1" d="M14.9,13.7l-2-2c-0.1-0.1-0.2-0.1-0.3-0.1h-0.3c0.5-0.7,0.9-1.6,0.9-2.5c0-2.3-1.8-4.1-4.1-4.1S4.9,6.8,4.9,9.1
	s1.8,4.1,4.1,4.1c1,0,1.8-0.3,2.5-0.9v0.3c0,0.1,0,0.2,0.1,0.3l2,2c0.2,0.2,0.5,0.2,0.7,0l0.6-0.6C15.1,14.2,15.1,13.9,14.9,13.7z
	 M9.1,11.6c-1.4,0-2.5-1.1-2.5-2.5c0-1.4,1.1-2.5,2.5-2.5c1.4,0,2.5,1.1,2.5,2.5C11.6,10.4,10.5,11.6,9.1,11.6z"/>
</svg>
